<svg width="24" height="24" viewBox="0 0 24 24" fill="none" xmlns="http://www.w3.org/2000/svg">
<rect width="24" height="24" rx="12" fill="#6442EF"/>
<path d="M13.591 11.9997L16.5002 9.08749C16.6891 8.87281 16.7892 8.59426 16.78 8.30846C16.7709 8.02266 16.6533 7.75106 16.4511 7.54887C16.2489 7.34667 15.9773 7.22906 15.6915 7.21994C15.4057 7.21081 15.1272 7.31086 14.9125 7.49974L12.0002 10.409L9.08274 7.49074C8.97824 7.38624 8.85418 7.30335 8.71765 7.2468C8.58111 7.19024 8.43478 7.16113 8.28699 7.16113C8.13921 7.16113 7.99287 7.19024 7.85633 7.2468C7.7198 7.30335 7.59574 7.38624 7.49124 7.49074C7.38674 7.59524 7.30385 7.7193 7.24729 7.85584C7.19074 7.99237 7.16163 8.13871 7.16163 8.28649C7.16163 8.43428 7.19074 8.58061 7.24729 8.71715C7.30385 8.85368 7.38674 8.97774 7.49124 9.08224L10.4095 11.9997L7.50024 14.9112C7.38615 15.0132 7.29406 15.1374 7.22961 15.2762C7.16517 15.415 7.12972 15.5655 7.12544 15.7185C7.12116 15.8715 7.14813 16.0237 7.20471 16.1659C7.2613 16.3081 7.34629 16.4373 7.4545 16.5455C7.56272 16.6537 7.69187 16.7387 7.83406 16.7953C7.97625 16.8519 8.1285 16.8788 8.28147 16.8745C8.43445 16.8703 8.58494 16.8348 8.72375 16.7704C8.86255 16.7059 8.98675 16.6138 9.08874 16.4997L12.0002 13.5905L14.9087 16.4997C15.1198 16.7108 15.406 16.8294 15.7045 16.8294C16.003 16.8294 16.2892 16.7108 16.5002 16.4997C16.7113 16.2887 16.8299 16.0025 16.8299 15.704C16.8299 15.4055 16.7113 15.1193 16.5002 14.9082L13.591 11.9997Z" fill="white"/>
</svg>
